<svg width="714" height="416" viewBox="0 0 714 416" fill="none" xmlns="http://www.w3.org/2000/svg">
<path d="M83.7612 121.674C94.0785 117.919 99.3982 106.511 95.6433 96.1944C91.8883 85.8777 80.4804 80.5585 70.1631 84.3136C59.8459 88.0688 54.5261 99.4764 58.2811 109.793C62.0361 120.11 73.4439 125.429 83.7612 121.674Z" fill="#FFB8B8"/>
<path d="M69.9208 121.931C74.7571 124.374 80.5075 120.025 79.1117 114.79C79.0041 114.383 78.8574 113.988 78.6736 113.61C77.6218 111.448 75.5819 109.881 75.0288 107.397C74.8844 106.781 74.8996 106.138 75.073 105.53C76.4964 100.801 84.9747 103.81 86.3704 99.4897C87.2248 96.8375 84.1544 94.2783 84.5476 91.5226C85.067 87.8857 90.4351 87.6324 92.851 84.8642C95.54 81.7848 93.4602 76.6962 90.1026 74.3629C86.008 71.522 80.5294 71.2025 75.7461 72.6093C70.9628 74.0162 66.7801 76.9709 63.0337 80.2617C58.7753 83.9996 54.8312 88.4606 53.3664 93.9326C51.585 100.587 53.8222 107.848 57.9364 113.374C60.4387 116.735 65.9697 119.94 69.9208 121.931Z" fill="#2F2E41"/>
<path d="M135.108 257.862H135.042C133.642 257.601 132.877 257.439 132.87 257.436C132.777 257.411 132.697 257.352 132.646 257.27C132.596 257.188 132.579 257.09 132.598 256.995C132.618 256.901 132.673 256.818 132.752 256.763C132.832 256.709 132.929 256.686 133.024 256.701C133.024 256.701 133.781 256.863 135.174 257.12C135.271 257.13 135.36 257.177 135.422 257.252C135.483 257.327 135.513 257.423 135.505 257.52C135.496 257.617 135.449 257.706 135.375 257.769C135.301 257.832 135.205 257.863 135.108 257.855V257.862Z" fill="#1A1A1A"/>
<path d="M187.526 262.449C186.056 262.449 184.586 262.423 183.116 262.398C183.019 262.398 182.925 262.359 182.856 262.29C182.787 262.221 182.748 262.128 182.748 262.031C182.748 261.933 182.787 261.84 182.856 261.771C182.925 261.702 183.019 261.663 183.116 261.663C184.586 261.689 186.056 261.707 187.5 261.714C187.594 261.719 187.683 261.76 187.748 261.828C187.813 261.897 187.849 261.987 187.849 262.081C187.849 262.176 187.813 262.266 187.748 262.335C187.683 262.403 187.594 262.444 187.5 262.449H187.526ZM191.918 262.449C191.824 262.444 191.735 262.403 191.67 262.335C191.605 262.266 191.569 262.176 191.569 262.081C191.569 261.987 191.605 261.897 191.67 261.828C191.735 261.76 191.824 261.719 191.918 261.714C193.359 261.714 194.836 261.681 196.306 261.648C196.356 261.645 196.406 261.653 196.453 261.67C196.499 261.688 196.542 261.714 196.578 261.749C196.615 261.783 196.644 261.824 196.663 261.87C196.683 261.916 196.693 261.966 196.693 262.015C196.693 262.065 196.683 262.115 196.663 262.161C196.644 262.207 196.615 262.248 196.578 262.282C196.542 262.317 196.499 262.343 196.453 262.361C196.406 262.378 196.356 262.386 196.306 262.383C194.836 262.416 193.366 262.438 191.896 262.449H191.918ZM178.75 262.291C177.298 262.247 175.81 262.191 174.358 262.122C174.309 262.121 174.26 262.11 174.215 262.09C174.171 262.07 174.13 262.042 174.096 262.006C174.063 261.97 174.037 261.928 174.02 261.882C174.003 261.836 173.995 261.787 173.997 261.738C173.999 261.688 174.011 261.64 174.032 261.596C174.054 261.552 174.083 261.512 174.12 261.479C174.157 261.446 174.2 261.421 174.246 261.406C174.293 261.39 174.342 261.383 174.391 261.387C175.861 261.453 177.331 261.512 178.772 261.556C178.866 261.561 178.955 261.602 179.02 261.67C179.085 261.739 179.121 261.829 179.121 261.923C179.121 262.018 179.085 262.108 179.02 262.177C178.955 262.245 178.866 262.286 178.772 262.291H178.75ZM200.701 262.254C200.604 262.254 200.51 262.215 200.441 262.146C200.372 262.077 200.333 261.984 200.333 261.886C200.333 261.789 200.372 261.696 200.441 261.627C200.51 261.558 200.604 261.519 200.701 261.519C202.171 261.468 203.641 261.401 205.082 261.328C205.13 261.325 205.179 261.332 205.224 261.348C205.27 261.364 205.312 261.389 205.348 261.421C205.384 261.454 205.413 261.493 205.434 261.536C205.455 261.58 205.467 261.627 205.469 261.675C205.472 261.724 205.465 261.772 205.449 261.818C205.433 261.863 205.408 261.905 205.376 261.941C205.344 261.977 205.305 262.006 205.261 262.027C205.218 262.048 205.17 262.06 205.122 262.063C203.655 262.136 202.185 262.2 200.712 262.254H200.701ZM169.981 261.886H169.959C168.489 261.802 167.019 261.706 165.571 261.599C165.521 261.598 165.472 261.586 165.427 261.566C165.382 261.545 165.341 261.515 165.308 261.478C165.275 261.441 165.249 261.398 165.233 261.351C165.217 261.304 165.21 261.254 165.214 261.205C165.218 261.155 165.232 261.107 165.255 261.062C165.278 261.018 165.309 260.979 165.348 260.948C165.386 260.916 165.431 260.893 165.479 260.879C165.526 260.866 165.577 260.862 165.626 260.868C167.074 260.968 168.548 261.068 169.999 261.151C170.093 261.158 170.182 261.2 170.245 261.271C170.309 261.341 170.343 261.432 170.341 261.527C170.339 261.622 170.3 261.712 170.233 261.779C170.166 261.846 170.076 261.884 169.981 261.886V261.886ZM209.469 261.801C209.374 261.8 209.283 261.762 209.216 261.695C209.148 261.629 209.109 261.539 209.106 261.444C209.103 261.349 209.137 261.257 209.2 261.186C209.264 261.116 209.352 261.073 209.447 261.066C210.917 260.974 212.387 260.866 213.82 260.75C213.869 260.744 213.919 260.748 213.967 260.762C214.015 260.776 214.06 260.799 214.098 260.83C214.137 260.862 214.168 260.901 214.192 260.945C214.215 260.989 214.229 261.037 214.233 261.087C214.237 261.136 214.23 261.186 214.215 261.233C214.199 261.281 214.174 261.324 214.141 261.361C214.108 261.398 214.067 261.429 214.022 261.45C213.977 261.471 213.929 261.483 213.879 261.485C212.431 261.603 210.939 261.709 209.495 261.805L209.469 261.801ZM161.223 261.257H161.19C159.72 261.132 158.25 260.996 156.813 260.857C156.72 260.842 156.637 260.792 156.58 260.718C156.523 260.644 156.496 260.55 156.506 260.457C156.515 260.364 156.559 260.278 156.63 260.216C156.701 260.155 156.792 260.122 156.886 260.126C158.323 260.269 159.793 260.405 161.252 260.526C161.347 260.533 161.436 260.577 161.499 260.648C161.563 260.719 161.596 260.812 161.593 260.908C161.589 261.003 161.548 261.093 161.479 261.159C161.41 261.225 161.318 261.262 161.223 261.261V261.257ZM218.223 261.099C218.126 261.103 218.032 261.068 217.961 261.003C217.89 260.937 217.847 260.846 217.842 260.75C217.837 260.653 217.871 260.559 217.935 260.486C217.999 260.414 218.089 260.37 218.186 260.364C219.656 260.221 221.126 260.07 222.548 259.912C222.597 259.905 222.647 259.907 222.696 259.92C222.744 259.932 222.789 259.954 222.828 259.985C222.868 260.015 222.901 260.053 222.925 260.097C222.95 260.14 222.965 260.188 222.97 260.237C222.976 260.287 222.971 260.337 222.957 260.385C222.943 260.432 222.919 260.477 222.887 260.515C222.855 260.553 222.816 260.585 222.771 260.607C222.727 260.63 222.679 260.643 222.629 260.647C221.196 260.805 219.729 260.959 218.256 261.099H218.223ZM152.48 260.39H152.44C150.97 260.225 149.5 260.048 148.078 259.864C147.981 259.852 147.892 259.801 147.832 259.724C147.771 259.646 147.744 259.548 147.756 259.45C147.769 259.353 147.819 259.264 147.897 259.204C147.974 259.144 148.073 259.117 148.17 259.129C149.592 259.309 151.059 259.497 152.525 259.655C152.622 259.661 152.714 259.705 152.778 259.778C152.843 259.851 152.876 259.947 152.87 260.044C152.865 260.142 152.82 260.233 152.747 260.298C152.674 260.363 152.578 260.396 152.481 260.39H152.48ZM226.951 260.129C226.854 260.135 226.758 260.103 226.684 260.038C226.611 259.974 226.566 259.883 226.559 259.785C226.553 259.688 226.586 259.592 226.65 259.519C226.715 259.445 226.806 259.4 226.903 259.394C228.347 259.21 229.81 259.027 231.251 258.806C231.3 258.798 231.35 258.8 231.398 258.812C231.446 258.823 231.491 258.845 231.531 258.874C231.571 258.904 231.604 258.941 231.629 258.983C231.655 259.026 231.671 259.073 231.678 259.122C231.684 259.171 231.681 259.221 231.668 259.269C231.655 259.317 231.633 259.361 231.603 259.4C231.572 259.439 231.534 259.472 231.491 259.496C231.448 259.52 231.4 259.536 231.351 259.541C229.907 259.747 228.444 259.941 226.992 260.129H226.951ZM143.774 259.273H143.719C142.249 259.06 140.779 258.839 139.375 258.608C139.278 258.592 139.19 258.539 139.132 258.459C139.075 258.379 139.051 258.279 139.066 258.182C139.082 258.084 139.136 257.997 139.216 257.939C139.296 257.881 139.396 257.857 139.493 257.873C140.893 258.101 142.356 258.321 143.826 258.535C143.874 258.538 143.921 258.551 143.965 258.573C144.008 258.594 144.047 258.624 144.078 258.661C144.11 258.697 144.134 258.74 144.15 258.785C144.165 258.831 144.171 258.88 144.168 258.928C144.165 258.976 144.152 259.023 144.13 259.067C144.109 259.11 144.079 259.149 144.042 259.18C144.006 259.212 143.963 259.236 143.918 259.252C143.872 259.267 143.823 259.273 143.775 259.27L143.774 259.273ZM235.65 258.88C235.555 258.884 235.462 258.85 235.391 258.787C235.32 258.724 235.276 258.636 235.268 258.541C235.26 258.446 235.29 258.352 235.35 258.278C235.41 258.204 235.496 258.157 235.591 258.145C237.028 257.917 238.483 257.671 239.913 257.41C240.01 257.392 240.111 257.414 240.192 257.471C240.273 257.528 240.329 257.614 240.346 257.712C240.364 257.809 240.342 257.909 240.286 257.991C240.229 258.072 240.142 258.127 240.045 258.145C238.608 258.402 237.145 258.645 235.708 258.88H235.65ZM244.294 257.34C244.197 257.349 244.099 257.319 244.024 257.257C243.948 257.195 243.901 257.105 243.891 257.007C243.882 256.91 243.912 256.813 243.974 256.737C244.037 256.662 244.127 256.614 244.224 256.605C245.657 256.322 247.102 256.024 248.516 255.719C248.611 255.704 248.708 255.727 248.788 255.781C248.867 255.836 248.922 255.919 248.942 256.013C248.961 256.108 248.944 256.206 248.894 256.288C248.843 256.37 248.763 256.429 248.67 256.454C247.251 256.759 245.8 257.054 244.37 257.34H244.294ZM252.879 255.503C252.83 255.51 252.78 255.507 252.733 255.494C252.685 255.481 252.64 255.459 252.601 255.429C252.562 255.399 252.53 255.361 252.506 255.318C252.481 255.275 252.466 255.228 252.461 255.179C252.455 255.129 252.459 255.08 252.473 255.032C252.487 254.985 252.51 254.941 252.541 254.903C252.572 254.865 252.611 254.833 252.655 254.81C252.698 254.787 252.746 254.772 252.795 254.768C254.228 254.43 255.661 254.081 257.054 253.728C257.102 253.71 257.154 253.702 257.206 253.705C257.258 253.708 257.308 253.722 257.354 253.746C257.4 253.77 257.44 253.804 257.472 253.844C257.504 253.885 257.527 253.932 257.54 253.982C257.553 254.032 257.555 254.084 257.546 254.135C257.537 254.186 257.518 254.235 257.489 254.278C257.46 254.321 257.422 254.357 257.378 254.385C257.334 254.412 257.285 254.43 257.234 254.437C255.834 254.804 254.401 255.146 252.964 255.481L252.879 255.503ZM261.387 253.338C261.291 253.349 261.194 253.321 261.118 253.262C261.042 253.202 260.992 253.115 260.978 253.019C260.965 252.923 260.99 252.826 261.048 252.748C261.106 252.671 261.191 252.618 261.287 252.603C262.698 252.217 264.117 251.809 265.499 251.403C265.594 251.378 265.694 251.391 265.779 251.44C265.864 251.489 265.926 251.569 265.951 251.664C265.976 251.759 265.963 251.859 265.914 251.944C265.865 252.029 265.785 252.091 265.69 252.116C264.301 252.528 262.879 252.935 261.464 253.325C261.435 253.329 261.405 253.329 261.376 253.325L261.387 253.338ZM269.803 250.838C269.708 250.848 269.613 250.82 269.537 250.762C269.462 250.703 269.411 250.618 269.397 250.523C269.383 250.428 269.406 250.332 269.461 250.254C269.516 250.176 269.599 250.122 269.693 250.103C271.093 249.655 272.493 249.192 273.853 248.725C273.946 248.693 274.047 248.7 274.135 248.743C274.224 248.786 274.291 248.863 274.322 248.955C274.354 249.048 274.348 249.15 274.304 249.238C274.261 249.326 274.185 249.393 274.092 249.425C272.729 249.892 271.325 250.355 269.917 250.803C269.879 250.82 269.838 250.829 269.796 250.829L269.803 250.838ZM278.109 247.993C278.022 247.994 277.938 247.963 277.871 247.908C277.805 247.852 277.76 247.775 277.745 247.689C277.73 247.604 277.746 247.516 277.789 247.441C277.833 247.366 277.902 247.309 277.984 247.28C279.358 246.78 280.737 246.255 282.084 245.729C282.173 245.703 282.268 245.711 282.351 245.752C282.434 245.792 282.498 245.863 282.532 245.949C282.565 246.035 282.565 246.131 282.531 246.217C282.497 246.303 282.432 246.373 282.349 246.413C281.004 246.942 279.622 247.464 278.24 247.971C278.196 247.983 278.15 247.986 278.104 247.982L278.109 247.993ZM286.275 244.781C286.19 244.78 286.109 244.751 286.044 244.697C285.978 244.643 285.934 244.569 285.917 244.486C285.9 244.403 285.912 244.317 285.951 244.242C285.991 244.168 286.054 244.108 286.132 244.075C287.477 243.513 288.832 242.928 290.156 242.337C290.245 242.297 290.347 242.295 290.438 242.329C290.529 242.364 290.603 242.434 290.642 242.523C290.682 242.613 290.685 242.714 290.65 242.805C290.615 242.897 290.545 242.97 290.456 243.01C289.126 243.602 287.77 244.19 286.413 244.752C286.37 244.77 286.324 244.781 286.278 244.783L286.275 244.781ZM294.294 241.209C294.211 241.209 294.13 241.18 294.065 241.128C294 241.076 293.954 241.003 293.936 240.922C293.917 240.841 293.927 240.756 293.964 240.68C294 240.605 294.061 240.545 294.136 240.509C295.452 239.884 296.775 239.237 298.068 238.583C298.156 238.539 298.258 238.531 298.352 238.562C298.446 238.593 298.523 238.66 298.568 238.748C298.612 238.837 298.619 238.939 298.588 239.033C298.557 239.126 298.49 239.204 298.402 239.248C297.102 239.902 295.774 240.548 294.451 241.177C294.403 241.201 294.35 241.212 294.297 241.211L294.294 241.209ZM302.129 237.258C302.048 237.257 301.969 237.23 301.905 237.179C301.841 237.129 301.795 237.058 301.775 236.979C301.756 236.9 301.763 236.817 301.795 236.742C301.828 236.668 301.884 236.606 301.956 236.567C303.246 235.876 304.529 235.167 305.789 234.45C305.873 234.406 305.971 234.397 306.063 234.424C306.154 234.451 306.231 234.512 306.278 234.595C306.325 234.677 306.338 234.775 306.315 234.867C306.292 234.959 306.234 235.039 306.153 235.089C304.892 235.824 303.58 236.519 302.302 237.213C302.25 237.242 302.192 237.258 302.132 237.26L302.129 237.258ZM309.758 232.921C309.677 232.922 309.599 232.895 309.534 232.847C309.47 232.798 309.423 232.73 309.401 232.652C309.379 232.574 309.384 232.491 309.414 232.416C309.444 232.341 309.498 232.278 309.567 232.237C310.813 231.502 312.067 230.712 313.29 229.929C313.372 229.883 313.469 229.87 313.56 229.894C313.651 229.917 313.73 229.974 313.781 230.053C313.831 230.133 313.849 230.229 313.831 230.321C313.813 230.413 313.76 230.495 313.683 230.55C312.452 231.336 311.195 232.116 309.949 232.869C309.891 232.902 309.825 232.919 309.758 232.92V232.921ZM317.145 228.195C317.067 228.195 316.99 228.17 316.927 228.124C316.864 228.077 316.818 228.012 316.795 227.937C316.771 227.862 316.773 227.781 316.799 227.708C316.825 227.634 316.874 227.57 316.939 227.526C318.139 226.71 319.35 225.869 320.533 225.026C320.572 224.997 320.617 224.976 320.665 224.964C320.712 224.953 320.762 224.951 320.81 224.958C320.858 224.966 320.905 224.983 320.946 225.009C320.988 225.035 321.024 225.069 321.052 225.109C321.08 225.149 321.101 225.194 321.111 225.242C321.122 225.289 321.123 225.339 321.114 225.387C321.106 225.435 321.087 225.481 321.061 225.522C321.034 225.563 320.999 225.598 320.959 225.626C319.772 226.479 318.559 227.326 317.35 228.14C317.29 228.179 317.22 228.199 317.148 228.198L317.145 228.195ZM324.286 223.079C324.21 223.078 324.135 223.054 324.073 223.009C324.011 222.965 323.965 222.902 323.94 222.83C323.916 222.757 323.914 222.679 323.936 222.606C323.958 222.533 324.002 222.468 324.062 222.421C325.216 221.543 326.377 220.635 327.513 219.727C327.551 219.697 327.594 219.674 327.64 219.661C327.686 219.648 327.735 219.643 327.783 219.649C327.831 219.654 327.877 219.669 327.919 219.692C327.962 219.715 327.999 219.746 328.029 219.784C328.059 219.822 328.082 219.865 328.095 219.911C328.108 219.957 328.113 220.006 328.107 220.054C328.102 220.102 328.087 220.148 328.064 220.19C328.041 220.233 328.01 220.27 327.972 220.3C326.833 221.211 325.672 222.137 324.506 223C324.444 223.05 324.368 223.079 324.289 223.082L324.286 223.079ZM331.125 217.566C331.05 217.566 330.976 217.544 330.914 217.501C330.852 217.458 330.805 217.397 330.779 217.326C330.753 217.256 330.749 217.179 330.768 217.106C330.787 217.033 330.829 216.968 330.886 216.919C331.986 215.978 333.091 215.008 334.194 214.038C334.232 214.005 334.277 213.979 334.325 213.964C334.374 213.948 334.425 213.942 334.475 213.946C334.526 213.951 334.575 213.965 334.62 213.989C334.665 214.012 334.705 214.045 334.737 214.084C334.769 214.124 334.793 214.169 334.808 214.218C334.822 214.267 334.826 214.318 334.821 214.368C334.815 214.419 334.799 214.468 334.774 214.512C334.749 214.556 334.715 214.595 334.675 214.626C333.575 215.6 332.47 216.574 331.368 217.526C331.294 217.579 331.202 217.603 331.111 217.592L331.125 217.566ZM337.648 211.686C337.575 211.685 337.504 211.663 337.443 211.623C337.383 211.582 337.336 211.524 337.307 211.457C337.279 211.39 337.271 211.316 337.285 211.244C337.298 211.173 337.332 211.106 337.383 211.054C338.434 210.054 339.489 209.025 340.51 207.993C340.58 207.928 340.672 207.893 340.767 207.895C340.862 207.896 340.952 207.934 341.02 208.001C341.087 208.068 341.126 208.159 341.128 208.254C341.131 208.349 341.096 208.441 341.032 208.511C340.003 209.547 338.945 210.584 337.89 211.587C337.83 211.662 337.743 211.711 337.647 211.723L337.648 211.686ZM343.833 205.464C343.761 205.465 343.69 205.445 343.63 205.405C343.569 205.366 343.522 205.309 343.495 205.242C343.468 205.176 343.461 205.102 343.476 205.032C343.491 204.961 343.527 204.897 343.579 204.847C344.568 203.792 345.564 202.704 346.519 201.617C346.585 201.552 346.674 201.514 346.767 201.512C346.86 201.509 346.95 201.542 347.02 201.603C347.09 201.665 347.134 201.75 347.143 201.843C347.152 201.935 347.126 202.028 347.07 202.102C346.096 203.202 345.096 204.307 344.104 205.351C344.073 205.395 344.032 205.431 343.985 205.457C343.938 205.483 343.886 205.498 343.832 205.502L343.833 205.464ZM349.658 198.908C349.588 198.908 349.519 198.889 349.459 198.851C349.399 198.813 349.352 198.76 349.322 198.696C349.292 198.632 349.282 198.561 349.291 198.491C349.3 198.421 349.329 198.356 349.375 198.302C350.308 197.202 351.242 196.049 352.142 194.914C352.17 194.871 352.206 194.834 352.249 194.806C352.292 194.777 352.341 194.758 352.392 194.75C352.442 194.742 352.494 194.744 352.544 194.757C352.594 194.77 352.64 194.793 352.681 194.825C352.721 194.857 352.754 194.897 352.778 194.943C352.802 194.989 352.815 195.039 352.819 195.09C352.822 195.141 352.814 195.193 352.797 195.241C352.779 195.289 352.751 195.333 352.715 195.37C351.815 196.513 350.877 197.656 349.937 198.777C349.907 198.825 349.866 198.865 349.817 198.894C349.769 198.924 349.714 198.941 349.658 198.946V198.908ZM355.108 192.032C355.04 192.032 354.973 192.013 354.915 191.977C354.857 191.941 354.81 191.89 354.78 191.829C354.749 191.768 354.736 191.699 354.742 191.631C354.748 191.564 354.773 191.499 354.814 191.444C355.685 190.283 356.549 189.092 357.387 187.905C357.444 187.828 357.53 187.776 357.625 187.761C357.72 187.745 357.817 187.768 357.896 187.824C357.974 187.88 358.028 187.964 358.045 188.059C358.062 188.154 358.041 188.251 357.987 188.331C357.145 189.522 356.274 190.72 355.414 191.885C355.383 191.939 355.339 191.984 355.285 192.016C355.232 192.049 355.171 192.067 355.109 192.069L355.108 192.032ZM360.172 184.873C360.106 184.873 360.04 184.854 359.983 184.82C359.927 184.785 359.88 184.736 359.849 184.677C359.817 184.619 359.803 184.553 359.806 184.486C359.809 184.42 359.83 184.355 359.867 184.3C360.667 183.095 361.473 181.86 362.248 180.625C362.304 180.551 362.385 180.501 362.475 180.485C362.566 180.468 362.659 180.486 362.738 180.535C362.816 180.584 362.872 180.66 362.897 180.749C362.921 180.838 362.911 180.933 362.869 181.015C362.09 182.253 361.285 183.496 360.477 184.69C360.451 184.75 360.41 184.802 360.357 184.841C360.304 184.88 360.242 184.904 360.177 184.911L360.172 184.873ZM364.847 177.449C364.781 177.448 364.717 177.43 364.66 177.398C364.577 177.348 364.517 177.268 364.493 177.174C364.469 177.081 364.483 176.982 364.531 176.898C365.266 175.652 366.001 174.377 366.718 173.105C366.767 173.02 366.847 172.957 366.942 172.931C367.037 172.906 367.138 172.918 367.223 172.967C367.308 173.016 367.371 173.096 367.397 173.191C367.422 173.286 367.41 173.387 367.361 173.472C366.644 174.747 365.891 176.045 365.156 177.279C365.128 177.338 365.084 177.389 365.03 177.426C364.976 177.462 364.912 177.484 364.847 177.488V177.449ZM369.132 169.794C369.072 169.793 369.013 169.78 368.959 169.754C368.916 169.732 368.877 169.701 368.846 169.663C368.815 169.626 368.792 169.583 368.777 169.536C368.763 169.49 368.758 169.441 368.763 169.392C368.768 169.344 368.782 169.297 368.805 169.254C369.481 167.979 370.15 166.681 370.805 165.354C370.826 165.311 370.856 165.272 370.893 165.241C370.929 165.209 370.971 165.185 371.017 165.169C371.063 165.154 371.111 165.148 371.159 165.151C371.207 165.154 371.254 165.167 371.298 165.188C371.341 165.21 371.379 165.24 371.411 165.276C371.443 165.312 371.467 165.355 371.482 165.4C371.498 165.446 371.504 165.495 371.501 165.543C371.497 165.591 371.484 165.638 371.463 165.681C370.809 166.993 370.136 168.312 369.463 169.595C369.437 169.661 369.393 169.717 369.336 169.758C369.278 169.8 369.21 169.823 369.14 169.827L369.132 169.794ZM373.032 161.933C372.979 161.935 372.926 161.923 372.878 161.9C372.834 161.88 372.794 161.851 372.762 161.815C372.729 161.78 372.703 161.738 372.687 161.693C372.67 161.647 372.662 161.599 372.664 161.551C372.666 161.502 372.678 161.455 372.698 161.411C373.312 160.099 373.918 158.758 374.498 157.424C374.515 157.377 374.542 157.333 374.576 157.297C374.611 157.26 374.652 157.231 374.699 157.211C374.745 157.191 374.795 157.181 374.845 157.181C374.896 157.181 374.945 157.191 374.991 157.212C375.038 157.232 375.079 157.261 375.113 157.298C375.148 157.335 375.174 157.378 375.191 157.426C375.208 157.473 375.215 157.524 375.211 157.574C375.208 157.624 375.194 157.673 375.171 157.718C374.583 159.056 373.977 160.404 373.363 161.724C373.339 161.794 373.294 161.855 373.234 161.899C373.174 161.943 373.103 161.967 373.029 161.97L373.032 161.933ZM376.549 153.899C376.489 153.898 376.43 153.883 376.377 153.854C376.324 153.826 376.279 153.785 376.246 153.735C376.213 153.685 376.192 153.627 376.186 153.568C376.18 153.508 376.189 153.448 376.211 153.392C376.759 152.054 377.311 150.692 377.824 149.32C377.859 149.229 377.929 149.155 378.018 149.116C378.108 149.076 378.209 149.074 378.3 149.109C378.391 149.144 378.465 149.214 378.504 149.303C378.544 149.393 378.546 149.494 378.511 149.585C377.985 150.956 377.438 152.33 376.887 153.672C376.865 153.746 376.821 153.811 376.761 153.859C376.7 153.906 376.626 153.934 376.549 153.937V153.899ZM379.698 145.707C379.639 145.707 379.581 145.693 379.528 145.666C379.475 145.639 379.43 145.6 379.396 145.552C379.362 145.503 379.34 145.448 379.331 145.389C379.323 145.33 379.329 145.271 379.349 145.215C379.838 143.859 380.323 142.466 380.786 141.077C380.801 141.031 380.826 140.989 380.858 140.952C380.889 140.915 380.928 140.885 380.972 140.864C381.015 140.842 381.062 140.829 381.111 140.826C381.159 140.823 381.208 140.829 381.253 140.845C381.299 140.86 381.342 140.884 381.378 140.916C381.415 140.948 381.445 140.987 381.467 141.03C381.488 141.073 381.501 141.121 381.504 141.169C381.508 141.217 381.501 141.266 381.486 141.312C381.019 142.705 380.534 144.101 380.045 145.465C380.026 145.543 379.981 145.612 379.919 145.663C379.856 145.713 379.779 145.742 379.699 145.744L379.698 145.707Z" fill="#005492"/>
<path d="M382.502 137.391C382.444 137.39 382.388 137.376 382.337 137.35C382.285 137.324 382.241 137.286 382.207 137.24C382.173 137.193 382.15 137.14 382.14 137.083C382.13 137.026 382.133 136.968 382.149 136.913C382.367 136.215 382.583 135.513 382.796 134.807C382.807 134.758 382.828 134.711 382.858 134.67C382.887 134.629 382.925 134.595 382.969 134.569C383.013 134.543 383.061 134.527 383.112 134.521C383.162 134.515 383.213 134.52 383.261 134.535C383.31 134.549 383.355 134.574 383.393 134.607C383.432 134.64 383.463 134.68 383.485 134.726C383.507 134.772 383.519 134.821 383.521 134.872C383.523 134.922 383.514 134.973 383.496 135.02C383.283 135.726 383.07 136.431 382.849 137.129C382.827 137.204 382.781 137.27 382.718 137.317C382.656 137.364 382.58 137.39 382.502 137.391Z" fill="#005492"/>
<path d="M585.195 414.944C585.195 414.944 545.137 360.987 461.438 360.987C377.739 360.987 361.738 414.944 361.738 414.944H585.195Z" fill="#005492"/>
<path d="M454.789 184.215L475.722 209.179V415.761H454.789V184.215Z" fill="#0191E6"/>
<path d="M291.199 414.942C291.199 414.942 238.109 356.954 160.224 361.209C82.339 365.464 61.66 414.942 61.66 414.942H291.199Z" fill="#89E3FE"/>
<path d="M454.789 415.081V184.215H400.314V229.852H348.741V275.489H297.171V321.125H245.603V366.762H194.031V415.762H454.789V415.081Z" fill="#DEDEDE"/>
<path d="M652.877 379.198C652.877 379.198 667.019 375.071 676.397 390.422C651.352 395.989 652.877 379.198 652.877 379.198Z" fill="#0191E6"/>
<path d="M672.414 376.331C672.414 376.331 673.465 360.161 706.04 361.208C697.43 389.41 672.414 376.331 672.414 376.331Z" fill="#0191E6"/>
<path d="M659.705 353.177C659.705 353.177 672.818 349.947 685.122 356.852C668.907 367.312 659.705 353.177 659.705 353.177Z" fill="#0191E6"/>
<path d="M672.597 341.275C672.597 341.275 669.08 327.409 655.074 326.696C652.708 339.309 672.597 341.275 672.597 341.275Z" fill="#0191E6"/>
<path d="M676.401 336.762C676.401 336.762 691.693 327.486 703.001 344.278C685.787 350.947 676.401 336.762 676.401 336.762Z" fill="#0191E6"/>
<path d="M685.122 323.087C685.122 323.087 697.617 310.125 713.633 318.897C703.17 331.551 689.863 325.594 685.122 323.087Z" fill="#0191E6"/>
<path d="M673.747 309.956C673.747 309.956 673.519 330.396 645.666 320.272C651.525 309.446 673.747 309.956 673.747 309.956Z" fill="#0191E6"/>
<path d="M645.667 320.272C645.667 320.272 649.162 299.909 623.51 295.785C625.197 312.323 645.667 320.272 645.667 320.272Z" fill="#0191E6"/>
<path d="M678.036 282.798C678.036 282.798 677.069 303.51 651.984 299.986C657.089 287.52 678.036 282.798 678.036 282.798Z" fill="#0191E6"/>
<path d="M651.969 299.985C651.969 299.985 652.877 276.553 635.49 267.95C627.898 294.098 651.969 299.985 651.969 299.985Z" fill="#0191E6"/>
<path d="M690.899 307.567C690.899 307.567 709.917 296.645 695.399 271.5C679.202 295.45 690.899 307.567 690.899 307.567Z" fill="#0191E6"/>
<path d="M656.567 281.622C656.567 281.622 687.474 259.013 666.376 232.527C645.112 260.027 656.567 281.622 656.567 281.622Z" fill="#0191E6"/>
<path d="M618.276 374.603C618.228 374.609 618.179 374.606 618.132 374.593C618.085 374.58 618.041 374.558 618.003 374.528C617.964 374.498 617.932 374.461 617.908 374.419C617.884 374.376 617.869 374.33 617.863 374.281C617.857 374.233 617.86 374.184 617.873 374.137C617.886 374.09 617.908 374.047 617.938 374.008C617.967 373.97 618.005 373.938 618.047 373.914C618.089 373.89 618.136 373.874 618.184 373.868C630.988 370.049 643.124 364.273 654.163 356.746C670.756 345.353 690.935 324.946 692.843 292.411C692.849 292.314 692.893 292.222 692.966 292.158C693.039 292.093 693.135 292.06 693.233 292.065C693.33 292.071 693.421 292.116 693.486 292.189C693.551 292.262 693.584 292.358 693.578 292.455C692.834 306.646 688.222 320.363 680.241 332.12C673.338 342.07 664.627 350.635 654.56 357.367C643.459 364.942 631.25 370.749 618.368 374.581C618.338 374.592 618.307 374.599 618.276 374.603V374.603Z" fill="#DEDEDE"/>
<path d="M621.654 361.571C621.576 361.572 621.5 361.547 621.437 361.502C621.373 361.456 621.326 361.392 621.302 361.318C621.278 361.244 621.278 361.164 621.302 361.09C621.327 361.016 621.374 360.951 621.437 360.906C631.859 353.424 641.907 333.706 650.495 303.858C654.558 289.576 657.879 275.093 660.443 260.467C660.459 260.37 660.512 260.282 660.592 260.224C660.672 260.167 660.772 260.143 660.869 260.159C660.967 260.174 661.054 260.228 661.112 260.308C661.17 260.388 661.194 260.488 661.178 260.585C658.606 275.239 655.278 289.751 651.208 304.061C642.447 334.49 632.579 353.817 621.87 361.502C621.807 361.548 621.731 361.572 621.653 361.572L621.654 361.571Z" fill="#DEDEDE"/>
<path d="M645.248 379.572C638.8 379.569 632.361 379.078 625.987 378.102C625.893 378.083 625.81 378.029 625.755 377.951C625.7 377.873 625.677 377.777 625.691 377.682C625.705 377.587 625.755 377.502 625.831 377.443C625.907 377.385 626.002 377.357 626.097 377.367C643.187 379.919 660.613 379.035 677.357 374.767C690.829 371.324 698.529 367.013 698.951 366.314C698.989 366.224 699.061 366.154 699.151 366.117C699.242 366.081 699.343 366.081 699.432 366.119C699.522 366.158 699.593 366.23 699.629 366.32C699.666 366.41 699.665 366.511 699.627 366.601C698.985 368.246 676.562 379.572 645.248 379.572Z" fill="#DEDEDE"/>
<path d="M201.447 142.106C201.447 142.106 155.116 162.389 130.802 159.011C106.488 155.633 95.235 144.37 95.235 144.37L97.749 125.44C97.749 125.44 124.489 143.701 149.24 141.434C163.872 140.141 178.299 137.12 192.22 132.434C194.459 133.118 196.484 134.367 198.1 136.061C199.717 137.755 200.869 139.837 201.447 142.106V142.106Z" fill="#003A65"/>
<path d="M94.0741 410.972C93.8553 412.096 93.5494 413.202 93.1591 414.279L54.6121 397.065L55.8471 393.757L94.0741 410.972Z" fill="#1C0311"/>
<path d="M93.155 414.481C93.1296 414.486 93.1035 414.486 93.078 414.481L54.5311 397.252C54.4872 397.233 54.4523 397.198 54.4336 397.155C54.415 397.111 54.4141 397.061 54.431 397.017L55.666 393.709C55.6752 393.687 55.6888 393.666 55.706 393.649C55.7232 393.632 55.7436 393.618 55.7661 393.609C55.789 393.598 55.8141 393.593 55.8396 393.593C55.865 393.593 55.8901 393.598 55.913 393.609L94.133 410.819C94.1707 410.836 94.2016 410.864 94.221 410.901C94.2404 410.937 94.2471 410.979 94.2401 411.019C94.0216 412.16 93.7119 413.282 93.314 414.374C93.3054 414.397 93.292 414.417 93.2747 414.435C93.2575 414.452 93.2368 414.465 93.2141 414.474C93.1947 414.479 93.1749 414.481 93.155 414.481V414.481ZM54.8391 396.981L93.0591 414.044C93.3976 413.074 93.6689 412.082 93.871 411.075L55.9561 394.008L54.8391 396.981Z" fill="#1A1A1A"/>
<path d="M61.4351 378.73L63.9351 371.994L75.328 376.805L74.0341 381.652C69.6501 381.807 65.3031 380.799 61.4351 378.73V378.73Z" fill="#1C0311"/>
<path d="M73.331 381.844C69.1519 381.894 65.0285 380.882 61.3471 378.904C61.308 378.882 61.278 378.847 61.2624 378.806C61.2468 378.764 61.2467 378.718 61.262 378.676L63.768 371.943C63.7765 371.919 63.7897 371.897 63.8069 371.879C63.8241 371.861 63.8449 371.846 63.868 371.836C63.9141 371.818 63.965 371.818 64.0111 371.836L75.404 376.647C75.4447 376.665 75.4778 376.696 75.4974 376.736C75.517 376.776 75.5218 376.821 75.5111 376.864L74.225 381.7C74.2136 381.738 74.1904 381.772 74.1589 381.796C74.1273 381.821 74.0889 381.834 74.049 381.836L73.331 381.844ZM61.663 378.644C65.4287 380.63 69.6458 381.604 73.9011 381.47L75.114 376.913L64.048 372.235L61.663 378.644Z" fill="#1A1A1A"/>
<path d="M61.435 378.731C65.3031 380.808 69.6524 381.822 74.04 381.671L73.559 383.479C73.559 383.479 73.191 383.788 86.197 391.362C95.418 396.739 95.058 406.04 94.069 410.99L55.849 393.783L61.435 378.731Z" fill="#0191E6"/>
<path d="M123.029 393.677L122.739 387.356H135.102L135.837 392.637C131.59 393.214 127.314 393.561 123.029 393.677Z" fill="#1C0311"/>
<path d="M123.359 393.864H123.03C122.983 393.864 122.938 393.846 122.904 393.814C122.869 393.782 122.849 393.738 122.846 393.691L122.57 387.355C122.568 387.33 122.572 387.305 122.58 387.282C122.588 387.259 122.601 387.237 122.618 387.219C122.636 387.201 122.657 387.187 122.68 387.178C122.704 387.168 122.729 387.164 122.754 387.164H135.117C135.161 387.164 135.204 387.18 135.238 387.209C135.272 387.238 135.294 387.278 135.301 387.322L136.036 392.603C136.039 392.627 136.037 392.652 136.031 392.675C136.024 392.699 136.013 392.721 135.998 392.74C135.983 392.759 135.964 392.775 135.943 392.787C135.922 392.799 135.898 392.806 135.874 392.809C134.966 392.909 134.036 393.009 133.114 393.118C129.879 393.546 126.622 393.795 123.359 393.864V393.864ZM123.205 393.497C126.507 393.444 129.803 393.199 133.076 392.762L135.649 392.475L134.954 387.543H122.944L123.205 393.497Z" fill="#1A1A1A"/>
<path d="M135.858 392.626L136.075 394.162C136.075 394.162 135.862 394.588 150.775 396.507C161.521 397.889 164.74 406.837 165.718 411.74L123.731 409.928L123.018 393.677C127.314 393.563 131.601 393.212 135.858 392.626V392.626Z" fill="#0191E6"/>
<path d="M166.202 411.74C166.419 412.795 166.556 413.864 166.61 414.94L124.399 414.087L124.215 409.927L166.202 411.74Z" fill="#1C0311"/>
<path d="M166.612 415.124L124.401 414.271C124.354 414.269 124.31 414.25 124.277 414.217C124.244 414.184 124.224 414.141 124.221 414.094L124.037 409.934C124.037 409.909 124.041 409.884 124.051 409.86C124.06 409.837 124.074 409.816 124.092 409.798C124.13 409.762 124.18 409.742 124.232 409.743L166.216 411.555C166.257 411.557 166.296 411.573 166.327 411.599C166.359 411.626 166.38 411.662 166.389 411.702C166.611 412.766 166.748 413.846 166.801 414.932C166.802 414.957 166.798 414.982 166.79 415.005C166.781 415.029 166.767 415.05 166.75 415.068C166.713 415.103 166.665 415.123 166.614 415.123L166.612 415.124ZM124.581 413.907L166.425 414.749C166.362 413.798 166.239 412.852 166.058 411.916L124.42 410.116L124.581 413.907Z" fill="#1A1A1A"/>
<path d="M108.002 249.645C108.002 282.889 78.157 379.491 78.157 379.491L61.667 374.662C61.667 374.662 72.467 288.005 67.915 253.055C63.363 218.105 72.465 192.821 72.465 192.821L116.051 194.526L108.002 249.645Z" fill="#222131"/>
<path d="M85.1081 213.41C85.1081 213.41 84.6411 233.204 102.608 269.822C118.065 301.343 119.77 389.687 119.77 389.687H139.384C139.384 389.687 144.388 210.712 133.018 194.542L85.1081 213.41Z" fill="#2F2E41"/>
<path d="M136.906 196.203L136.053 204.468C136.053 204.468 74.228 214.068 68.392 205.868L71.119 197.441L136.906 196.203Z" fill="#1C0311"/>
<path d="M85.653 209.378C76.914 209.378 70.03 208.496 68.241 205.971C68.2244 205.947 68.2135 205.92 68.209 205.891C68.2045 205.863 68.2065 205.834 68.215 205.806L70.946 197.383C70.9577 197.347 70.9802 197.315 71.0104 197.292C71.0406 197.269 71.077 197.256 71.115 197.254L136.898 196.019C136.924 196.016 136.951 196.019 136.976 196.03C137.001 196.04 137.022 196.057 137.038 196.078C137.055 196.097 137.068 196.12 137.077 196.145C137.085 196.169 137.088 196.195 137.086 196.221L136.233 204.486C136.229 204.526 136.212 204.564 136.184 204.594C136.156 204.623 136.119 204.642 136.079 204.648C134.329 204.92 105.297 209.378 85.653 209.378ZM68.59 205.831C74.47 213.549 132.598 204.809 135.88 204.306L136.7 196.39L71.251 197.621L68.59 205.831Z" fill="#1A1A1A"/>
<path d="M336.13 53.266C340.102 59.1995 342.743 65.9218 343.873 72.972L420.156 107.583L510.312 64.467C511.277 59.7423 512.746 55.1346 514.693 50.723L336.13 53.266Z" fill="#D8D8D8"/>
<path d="M514.693 134.914C508.265 106.984 506.393 83.114 510.312 64.467L420.156 107.582L343.873 72.967C346.931 90.313 343.219 111.625 336.13 134.91L514.693 134.914Z" fill="#EDEDED"/>
<path d="M655.744 415.492H0.911007C0.770872 415.484 0.639248 415.422 0.543013 415.32C0.446777 415.218 0.393188 415.082 0.393188 414.942C0.393188 414.802 0.446777 414.667 0.543013 414.564C0.639248 414.462 0.770872 414.4 0.911007 414.392H655.744C655.884 414.4 656.016 414.462 656.112 414.564C656.208 414.667 656.262 414.802 656.262 414.942C656.262 415.082 656.208 415.218 656.112 415.32C656.016 415.422 655.884 415.484 655.744 415.492V415.492Z" fill="#1A1A1A"/>
<path d="M552.493 42.468L420.159 98.138V3.33299L552.493 42.468Z" fill="#DEDEDE"/>
<path d="M287.825 42.468L420.159 98.137V3.33299L287.825 42.468Z" fill="#EDEDED"/>
<path d="M420.159 36.732C420.159 36.732 326.119 51.521 321.841 56.78C317.563 62.039 315.2 125.294 315.2 125.294H308.449C308.449 125.294 311.429 60.827 316.861 54.686C322.293 48.545 420.159 32.348 420.159 32.348C420.159 32.348 424.959 35.968 420.159 36.732Z" fill="#005492"/>
<path d="M315.2 125.477H308.449C308.399 125.475 308.352 125.454 308.317 125.418C308.3 125.401 308.287 125.38 308.279 125.357C308.271 125.334 308.267 125.31 308.269 125.286C308.39 122.651 311.312 60.686 316.722 54.564C322.132 48.442 416.13 32.829 420.13 32.168C420.154 32.164 420.179 32.1648 420.203 32.1705C420.227 32.1762 420.25 32.1865 420.27 32.201C420.37 32.278 422.798 34.127 422.442 35.56C422.269 36.247 421.512 36.703 420.189 36.916C419.248 37.063 326.167 51.748 321.989 56.893C317.811 62.038 315.414 124.668 315.374 125.3C315.372 125.346 315.354 125.39 315.321 125.422C315.289 125.455 315.246 125.475 315.2 125.477ZM308.644 125.109H315.024C315.193 120.699 317.505 61.821 321.698 56.661C325.968 51.409 416.29 37.154 420.13 36.551C421.295 36.364 421.968 36.003 422.085 35.471C422.324 34.504 420.795 33.071 420.111 32.531C416.859 33.071 322.256 48.844 316.997 54.794C311.819 60.662 308.83 121.21 308.644 125.11V125.109Z" fill="#1A1A1A"/>
<path d="M215.904 102.515L227.477 82.155L229.039 101.567L240.239 95.319C240.239 95.319 224.624 119.041 222.746 119.831C220.868 120.621 215.904 102.515 215.904 102.515Z" fill="#003A65"/>
<path d="M222.611 120.034C222.516 120.034 222.423 120.012 222.339 119.968C220.23 118.943 215.908 103.232 215.724 102.568C215.717 102.545 215.715 102.52 215.718 102.496C215.721 102.472 215.729 102.449 215.742 102.428L227.311 82.064C227.331 82.0299 227.361 82.0029 227.397 81.9871C227.433 81.9713 227.473 81.9674 227.511 81.976C227.55 81.9834 227.585 82.0037 227.611 82.0336C227.637 82.0636 227.652 82.1014 227.654 82.141L229.198 101.251L240.15 95.143C240.186 95.1227 240.227 95.115 240.268 95.121C240.308 95.1269 240.346 95.1463 240.374 95.176C240.397 95.2095 240.41 95.2493 240.41 95.29C240.41 95.3308 240.397 95.3705 240.374 95.404C239.735 96.374 224.704 119.178 222.796 119.983C222.741 120.011 222.681 120.028 222.62 120.034H222.611ZM216.103 102.543C217.353 107.104 220.881 118.853 222.503 119.643C222.526 119.659 222.553 119.669 222.581 119.673C222.61 119.677 222.638 119.674 222.665 119.665C224.135 119.051 235.05 102.837 239.665 95.851L229.125 101.731C229.098 101.745 229.068 101.753 229.037 101.753C229.006 101.753 228.976 101.745 228.949 101.731C228.921 101.717 228.897 101.696 228.88 101.671C228.862 101.645 228.851 101.615 228.849 101.584L227.331 82.768L216.103 102.543Z" fill="#1A1A1A"/>
<path d="M282.691 212.854C237.748 149.112 198.258 78.408 164.222 0.741999C141.114 -1.525 124.429 6.198 116.491 27.398C169.044 93.324 208.102 164.175 234.956 239.498C257.535 242.559 272.823 232.563 282.691 212.854Z" fill="#EDEDED"/>
<path d="M173.704 116.017C173.704 116.017 213.049 106.172 215.919 98.377C230.424 127.119 229.484 126.355 229.484 126.355C229.484 126.355 197.846 152.767 191.231 144.613C186.046 134.693 180.19 125.139 173.704 116.017V116.017Z" fill="#DEDEDE"/>
<path d="M124.024 28.606C123.628 28.6615 123.225 28.6335 122.84 28.524C122.455 28.4145 122.098 28.2258 121.79 27.97C118.79 24.082 128.118 16.522 128.515 16.21C128.591 16.1486 128.688 16.1199 128.785 16.1302C128.883 16.1405 128.972 16.189 129.033 16.265C129.094 16.341 129.123 16.4382 129.113 16.5354C129.103 16.6325 129.054 16.7216 128.978 16.783C126.405 18.837 120.25 24.769 122.363 27.529C122.569 27.794 123.098 27.919 123.863 27.919C129.317 27.919 147.409 21.671 157.225 14.784C160.419 12.542 163.899 9.36699 162.37 6.96699C157.423 -0.809009 137.27 7.72399 137.07 7.82699C137.025 7.84798 136.977 7.85976 136.928 7.86163C136.878 7.86351 136.829 7.85543 136.783 7.83789C136.737 7.82035 136.695 7.7937 136.659 7.75952C136.623 7.72535 136.595 7.68436 136.575 7.63898C136.556 7.59361 136.546 7.54478 136.546 7.4954C136.545 7.44603 136.555 7.39712 136.574 7.35159C136.593 7.30605 136.621 7.26483 136.657 7.23037C136.692 7.1959 136.734 7.16891 136.78 7.15099C137.633 6.78299 157.728 -1.72801 163.005 6.56299C164.475 8.88599 162.689 11.848 157.665 15.383C148.463 21.833 130.518 28.606 124.024 28.606Z" fill="#DEDEDE"/>
<path d="M313.664 119.225C316.225 125.287 317.49 131.818 317.376 138.398L304.55 138.453C304.55 138.453 307.082 123.61 309.95 119.225C312.818 114.84 313.664 119.225 313.664 119.225Z" fill="#005492"/>
<path d="M304.55 138.636C304.524 138.636 304.498 138.63 304.474 138.62C304.449 138.609 304.428 138.593 304.41 138.574C304.393 138.553 304.38 138.529 304.374 138.503C304.367 138.477 304.365 138.45 304.37 138.423C304.47 137.817 306.943 123.491 309.798 119.123C310.783 117.623 311.636 116.962 312.398 117.113C313.42 117.313 313.791 118.951 313.839 119.167C316.39 125.254 317.656 131.803 317.558 138.402C317.558 138.45 317.539 138.496 317.505 138.529C317.472 138.563 317.426 138.582 317.378 138.582L304.548 138.637L304.55 138.636ZM312.191 117.449C311.625 117.449 310.908 118.088 310.107 119.316C307.476 123.333 305.094 136.416 304.771 138.261L317.196 138.206C317.269 131.715 316.01 125.279 313.496 119.294C313.494 119.279 313.494 119.265 313.496 119.25C313.408 118.798 313.029 117.6 312.338 117.464C312.288 117.455 312.237 117.452 312.187 117.457L312.191 117.449Z" fill="#1A1A1A"/>
<path d="M136.638 197.662C136.638 197.662 74.758 211.969 69.804 202.807C65.082 166.189 72.904 128.145 82.804 119.351C92.704 110.557 109.411 102.078 109.411 102.078C109.411 102.078 141.816 174.722 136.638 197.662Z" fill="#005492"/>
<path d="M177.313 57.591C177.313 57.591 187.184 45.783 190.139 45.53C193.094 45.277 199.76 61.388 196.552 62.737C193.344 64.086 189.202 62.906 186.681 62.737C184.16 62.568 180.772 64.593 180.772 64.593C180.772 64.593 177.059 60.715 177.313 57.591Z" fill="#FFB8B8"/>
<path d="M113.518 130.13C124.826 129.792 170.055 80.03 183.388 64.509C183.388 64.509 180.621 52.933 177.251 56.244C160.96 72.271 112.673 92.444 82.512 119.602L113.518 130.13Z" fill="#003A65"/>
<path d="M116.491 228.34C116.442 228.349 116.392 228.348 116.344 228.337C116.295 228.326 116.25 228.306 116.209 228.277C116.169 228.248 116.135 228.211 116.109 228.169C116.083 228.127 116.065 228.08 116.058 228.031C116.05 227.982 116.052 227.932 116.064 227.884C116.076 227.836 116.098 227.79 116.128 227.751C116.157 227.711 116.195 227.678 116.238 227.653C116.28 227.628 116.328 227.611 116.377 227.605C119.398 226.638 127.806 216.029 127.891 215.918C127.953 215.846 128.04 215.8 128.135 215.791C128.23 215.782 128.324 215.81 128.399 215.869C128.473 215.928 128.522 216.013 128.535 216.107C128.548 216.202 128.524 216.297 128.468 216.374C128.119 216.819 119.835 227.274 116.601 228.307C116.566 228.324 116.529 228.335 116.491 228.34V228.34Z" fill="#1A1A1A"/>
<path d="M638.265 386.658L632.65 398.966C632.65 398.966 541.638 384.846 517.732 413.901L514.744 402.589C514.744 402.589 512.568 388.378 531.859 380.23C551.15 372.082 638.265 386.658 638.265 386.658Z" fill="#1C0311"/>
<path d="M517.732 414.085H517.692C517.659 414.078 517.629 414.062 517.605 414.038C517.581 414.015 517.564 413.985 517.556 413.953L514.565 402.638C514.328 399.823 514.786 396.994 515.899 394.398C517.615 390.198 521.779 384.298 531.79 380.065C550.9 371.98 637.425 386.335 638.296 386.478C638.324 386.484 638.351 386.496 638.373 386.513C638.396 386.53 638.415 386.553 638.428 386.578C638.441 386.603 638.447 386.631 638.447 386.659C638.447 386.687 638.441 386.715 638.428 386.74L632.834 399.048C632.818 399.085 632.79 399.115 632.755 399.134C632.719 399.154 632.679 399.161 632.639 399.155C616.582 396.884 600.386 395.74 584.169 395.73C569.237 395.789 556.338 397.057 545.827 399.497C532.714 402.54 523.314 407.431 517.897 414.024C517.878 414.048 517.852 414.067 517.823 414.078C517.794 414.088 517.763 414.091 517.732 414.085ZM552.483 377.956C543.472 377.956 536.092 378.643 531.929 380.4C522.036 384.578 517.942 390.381 516.248 394.512C515.152 397.045 514.697 399.809 514.925 402.56L517.825 413.512C523.337 406.992 532.725 402.152 545.755 399.132C556.291 396.684 569.22 395.417 584.177 395.358C600.366 395.374 616.534 396.513 632.566 398.765L638.023 386.799C634.08 386.156 583.592 377.957 552.487 377.957L552.483 377.956Z" fill="#1A1A1A"/>
<path d="M386.874 398.966L390.858 409.829C390.858 409.829 473.267 380.682 517.731 413.901L512.773 394.574C512.773 394.574 467.651 358.779 386.874 398.966Z" fill="#1C0311"/>
<path d="M517.732 414.085C517.692 414.086 517.653 414.073 517.622 414.048C494.704 396.926 461.486 396.735 437.649 399.59C421.769 401.523 406.116 405.01 390.917 410.001C390.895 410.009 390.871 410.013 390.847 410.011C390.823 410.01 390.8 410.004 390.779 409.994C390.757 409.984 390.738 409.97 390.722 409.952C390.706 409.934 390.694 409.913 390.686 409.891L386.702 399.031C386.685 398.989 386.685 398.942 386.701 398.9C386.718 398.858 386.749 398.823 386.79 398.803C405.235 389.615 423.338 383.684 440.596 381.144C453.711 379.101 467.072 379.225 480.147 381.512C501.326 385.4 512.774 394.334 512.888 394.422C512.92 394.447 512.942 394.482 512.95 394.522L517.908 413.853C517.919 413.89 517.917 413.929 517.904 413.965C517.891 414.001 517.867 414.032 517.835 414.053C517.806 414.074 517.771 414.085 517.735 414.086L517.732 414.085ZM460.064 397.823C466.455 397.801 472.84 398.218 479.174 399.073C494.455 401.193 507.321 406.03 517.424 413.45L512.613 394.685C511.782 394.049 500.456 385.619 480.06 381.885C460.608 378.317 428.701 378.409 387.104 399.066L390.97 409.606C406.14 404.645 421.756 401.172 437.599 399.235C445.053 398.319 452.554 397.848 460.064 397.823V397.823Z" fill="#1A1A1A"/>
<path d="M603.128 255.227C603.128 255.227 501.328 230.237 483.954 272.606C511.484 397.517 514.743 402.588 514.743 402.588C514.743 402.588 523.434 389.913 555.312 383.397C587.19 376.881 638.265 386.657 638.265 386.657L603.128 255.227Z" fill="white"/>
<path d="M356.805 268.623C356.805 268.623 465.48 243.633 483.961 272.607C496.552 328.912 514.75 402.589 514.75 402.589C514.75 402.589 507.238 386.469 469.106 385.57C430.974 384.671 386.881 398.97 386.881 398.97L356.805 268.623Z" fill="white"/>
<path d="M501.297 381.278H501.268C501.171 381.271 501.081 381.227 501.017 381.153C500.953 381.08 500.92 380.985 500.926 380.888C500.926 380.822 501.426 374.317 507.515 373.905C513.604 373.493 515.082 379.759 515.097 379.822C515.114 379.918 515.094 380.016 515.04 380.097C514.986 380.178 514.903 380.235 514.809 380.256C514.714 380.278 514.614 380.262 514.531 380.211C514.448 380.161 514.387 380.081 514.362 379.987C514.311 379.752 513.002 374.247 507.549 374.636C502.096 375.025 501.669 380.703 501.64 380.946C501.632 381.033 501.592 381.114 501.53 381.175C501.467 381.236 501.384 381.272 501.297 381.278Z" fill="#DEDEDF"/>
<path d="M498.095 364.913H498.069C497.972 364.907 497.881 364.862 497.817 364.789C497.753 364.716 497.721 364.62 497.727 364.523C497.727 364.457 498.227 357.952 504.316 357.541C510.405 357.13 511.887 363.399 511.901 363.461C511.923 363.559 511.904 363.66 511.851 363.745C511.797 363.829 511.712 363.888 511.615 363.91C511.517 363.931 511.415 363.913 511.331 363.859C511.247 363.805 511.188 363.72 511.166 363.623C511.115 363.388 509.806 357.883 504.353 358.276C498.9 358.669 498.473 364.343 498.447 364.586C498.438 364.674 498.397 364.755 498.332 364.815C498.267 364.875 498.183 364.91 498.095 364.913V364.913Z" fill="#DEDEDF"/>
<path d="M494.894 348.548H494.868C494.771 348.541 494.681 348.497 494.617 348.423C494.553 348.35 494.52 348.255 494.526 348.158C494.526 348.092 495.026 341.587 501.115 341.175C507.204 340.763 508.686 347.033 508.7 347.095C508.711 347.143 508.712 347.193 508.703 347.242C508.694 347.29 508.676 347.337 508.65 347.379C508.623 347.42 508.588 347.456 508.548 347.485C508.507 347.513 508.462 347.533 508.414 347.543C508.365 347.554 508.315 347.555 508.267 347.547C508.218 347.538 508.172 347.52 508.13 347.493C508.088 347.467 508.052 347.432 508.024 347.391C507.996 347.351 507.976 347.305 507.965 347.257C507.91 347.025 506.602 341.528 501.148 341.91C495.694 342.292 495.268 347.977 495.242 348.22C495.233 348.307 495.192 348.388 495.129 348.448C495.065 348.508 494.982 348.544 494.894 348.548Z" fill="#DEDEDF"/>
<path d="M490.54 332.289H490.514C490.466 332.286 490.419 332.273 490.375 332.252C490.332 332.23 490.293 332.2 490.261 332.164C490.229 332.127 490.205 332.085 490.19 332.039C490.175 331.993 490.168 331.944 490.172 331.896C490.172 331.83 490.672 325.325 496.761 324.913C502.85 324.501 504.328 330.767 504.343 330.833C504.365 330.928 504.347 331.028 504.295 331.11C504.243 331.193 504.161 331.251 504.066 331.273C503.97 331.294 503.871 331.277 503.788 331.225C503.706 331.173 503.647 331.09 503.626 330.995C503.575 330.76 502.259 325.262 496.812 325.644C491.365 326.026 490.932 331.715 490.903 331.954C490.895 332.045 490.853 332.13 490.786 332.192C490.719 332.254 490.631 332.288 490.54 332.289V332.289Z" fill="#DEDEDF"/>
<path d="M486.148 315.873H486.122C486.025 315.866 485.935 315.822 485.871 315.749C485.807 315.675 485.774 315.58 485.78 315.483C485.78 315.417 486.28 308.912 492.369 308.5C498.458 308.088 499.94 314.358 499.954 314.421C499.965 314.469 499.966 314.519 499.957 314.568C499.948 314.616 499.93 314.663 499.904 314.705C499.877 314.746 499.842 314.782 499.802 314.811C499.761 314.839 499.716 314.859 499.667 314.869C499.619 314.88 499.569 314.881 499.521 314.872C499.472 314.864 499.426 314.846 499.384 314.819C499.342 314.793 499.306 314.758 499.278 314.717C499.25 314.677 499.23 314.631 499.219 314.583C499.164 314.348 497.859 308.85 492.402 309.236C486.945 309.622 486.522 315.303 486.496 315.546C486.486 315.633 486.446 315.714 486.382 315.774C486.318 315.834 486.235 315.869 486.148 315.873V315.873Z" fill="#DEDEDF"/>
<path d="M482.892 299.486C482.795 299.48 482.705 299.435 482.641 299.362C482.577 299.289 482.544 299.194 482.55 299.097C482.55 299.031 483.05 292.526 489.139 292.114C495.228 291.702 496.71 297.968 496.721 298.034C496.743 298.129 496.725 298.229 496.673 298.311C496.621 298.394 496.539 298.452 496.444 298.474C496.349 298.495 496.249 298.478 496.166 298.426C496.084 298.374 496.025 298.291 496.004 298.196C495.953 297.961 494.637 292.463 489.191 292.845C483.745 293.227 483.311 298.913 483.282 299.155C483.273 299.25 483.227 299.338 483.154 299.399C483.081 299.461 482.987 299.492 482.892 299.486V299.486Z" fill="#DEDEDF"/>
<path d="M478.967 283.096H478.941C478.844 283.09 478.753 283.045 478.689 282.972C478.625 282.899 478.593 282.803 478.599 282.706C478.599 282.64 479.099 276.135 485.188 275.723C491.277 275.311 492.755 281.581 492.769 281.643C492.791 281.738 492.773 281.838 492.721 281.92C492.669 282.003 492.587 282.061 492.491 282.082C492.396 282.104 492.297 282.087 492.214 282.035C492.132 281.983 492.074 281.9 492.052 281.805C492.001 281.57 490.689 276.068 485.238 276.458C479.787 276.848 479.358 282.526 479.329 282.768C479.319 282.858 479.277 282.94 479.21 283.001C479.144 283.061 479.057 283.095 478.967 283.096V283.096Z" fill="#DEDEDF"/>
<path d="M374.008 285.077C373.911 285.093 373.811 285.069 373.731 285.011C373.651 284.953 373.597 284.866 373.582 284.768C373.566 284.671 373.59 284.571 373.648 284.491C373.705 284.411 373.793 284.358 373.89 284.342C410.684 271.842 451.951 278.942 452.367 279.013C452.465 279.03 452.551 279.085 452.608 279.166C452.665 279.247 452.687 279.347 452.67 279.445C452.653 279.542 452.598 279.629 452.517 279.686C452.436 279.743 452.336 279.765 452.238 279.748C451.826 279.674 410.738 272.629 374.125 285.048C374.087 285.062 374.047 285.071 374.007 285.074L374.008 285.077Z" fill="#DEDEDE"/>
<path d="M383.148 309.202C383.061 309.202 382.977 309.171 382.911 309.114C382.845 309.058 382.8 308.98 382.786 308.894C382.771 308.809 382.788 308.721 382.832 308.646C382.876 308.571 382.945 308.514 383.027 308.485C419.821 295.985 461.092 303.079 461.504 303.152C461.553 303.159 461.6 303.175 461.643 303.201C461.686 303.226 461.722 303.26 461.752 303.3C461.781 303.34 461.802 303.386 461.813 303.434C461.824 303.482 461.825 303.532 461.816 303.581C461.808 303.63 461.789 303.677 461.762 303.718C461.735 303.76 461.7 303.795 461.658 303.823C461.617 303.85 461.571 303.869 461.522 303.878C461.474 303.887 461.423 303.887 461.375 303.876C460.963 303.806 419.875 296.761 383.266 309.176C383.228 309.191 383.188 309.2 383.148 309.202Z" fill="#DEDEDE"/>
<path d="M386.26 332.657C386.171 332.662 386.083 332.635 386.012 332.58C385.942 332.525 385.894 332.446 385.877 332.358C385.861 332.27 385.876 332.18 385.922 332.103C385.967 332.026 386.039 331.968 386.124 331.94C422.918 319.44 464.186 326.54 464.597 326.611C464.647 326.618 464.694 326.634 464.737 326.66C464.78 326.685 464.818 326.719 464.848 326.76C464.877 326.8 464.899 326.846 464.91 326.895C464.922 326.943 464.923 326.994 464.915 327.043C464.907 327.093 464.888 327.14 464.861 327.182C464.834 327.224 464.799 327.26 464.758 327.289C464.716 327.317 464.67 327.337 464.621 327.346C464.572 327.356 464.521 327.356 464.472 327.346C464.06 327.273 422.972 320.227 386.359 332.646C386.327 332.653 386.293 332.657 386.26 332.657V332.657Z" fill="#DEDEDE"/>
<path d="M392.747 352.407C392.661 352.405 392.579 352.374 392.514 352.318C392.449 352.262 392.406 352.185 392.391 352.101C392.377 352.016 392.392 351.929 392.435 351.855C392.478 351.781 392.546 351.724 392.626 351.694C429.42 339.194 470.691 346.288 471.103 346.362C471.152 346.369 471.2 346.385 471.242 346.411C471.285 346.436 471.322 346.47 471.351 346.51C471.38 346.55 471.401 346.596 471.412 346.644C471.423 346.692 471.424 346.742 471.416 346.791C471.407 346.84 471.388 346.886 471.361 346.928C471.334 346.969 471.299 347.005 471.258 347.033C471.216 347.06 471.17 347.079 471.121 347.088C471.073 347.097 471.023 347.097 470.974 347.086C470.563 347.016 429.474 339.967 392.865 352.386C392.827 352.4 392.787 352.407 392.747 352.407V352.407Z" fill="#DEDEDE"/>
<path d="M397.429 375.644C397.381 375.652 397.331 375.65 397.284 375.639C397.236 375.627 397.192 375.607 397.152 375.578C397.112 375.549 397.079 375.513 397.053 375.472C397.027 375.43 397.01 375.384 397.003 375.336C396.995 375.287 396.997 375.238 397.008 375.19C397.019 375.143 397.04 375.098 397.068 375.058C397.097 375.019 397.133 374.985 397.175 374.96C397.217 374.934 397.263 374.917 397.311 374.909C434.105 362.409 475.373 369.509 475.788 369.576C475.837 369.583 475.884 369.599 475.927 369.625C475.97 369.65 476.006 369.684 476.036 369.724C476.065 369.764 476.086 369.81 476.097 369.858C476.108 369.906 476.109 369.956 476.1 370.005C476.092 370.054 476.073 370.101 476.046 370.142C476.019 370.184 475.984 370.219 475.943 370.247C475.901 370.274 475.855 370.293 475.806 370.302C475.758 370.311 475.707 370.311 475.659 370.3C475.248 370.23 434.159 363.185 397.546 375.6C397.51 375.622 397.471 375.637 397.429 375.644V375.644Z" fill="#DEDEDE"/>
<path d="M591.949 267.95L599.715 299.118C584.482 295.572 570.715 294.679 559.885 299.118L552.12 264.918C565.412 262.086 579.238 263.139 591.949 267.95V267.95Z" fill="#005492"/>
<path d="M504.446 277.281C504.374 277.282 504.303 277.262 504.243 277.222C504.182 277.183 504.135 277.126 504.108 277.059C504.081 276.993 504.074 276.919 504.089 276.849C504.104 276.778 504.14 276.714 504.192 276.664C514.901 265.224 536.235 265.723 536.448 265.727C536.498 265.726 536.547 265.736 536.593 265.755C536.639 265.774 536.68 265.802 536.715 265.837C536.75 265.872 536.777 265.915 536.795 265.961C536.814 266.007 536.822 266.056 536.821 266.106C536.819 266.156 536.808 266.204 536.787 266.25C536.766 266.295 536.736 266.335 536.699 266.368C536.662 266.401 536.619 266.427 536.572 266.443C536.525 266.459 536.476 266.466 536.426 266.462C536.217 266.462 515.21 265.97 504.726 277.162C504.691 277.201 504.647 277.231 504.599 277.252C504.551 277.272 504.498 277.282 504.446 277.281Z" fill="#DEDEDE"/>
<path d="M508.342 292.812C508.27 292.813 508.2 292.792 508.14 292.752C508.081 292.712 508.034 292.655 508.007 292.588C507.98 292.522 507.974 292.449 507.989 292.379C508.004 292.309 508.04 292.245 508.092 292.195C518.805 280.755 540.142 281.254 540.352 281.262C540.447 281.269 540.535 281.312 540.598 281.382C540.662 281.453 540.696 281.545 540.693 281.64C540.69 281.735 540.651 281.825 540.583 281.891C540.516 281.958 540.425 281.996 540.33 281.997C540.117 281.997 519.11 281.497 508.63 292.697C508.593 292.736 508.548 292.766 508.499 292.786C508.449 292.806 508.395 292.815 508.342 292.812V292.812Z" fill="#DEDEDE"/>
<path d="M517.731 324.145C517.653 324.144 517.577 324.118 517.514 324.07C517.452 324.023 517.406 323.957 517.384 323.882C517.362 323.807 517.364 323.727 517.39 323.653C517.417 323.579 517.466 323.516 517.531 323.472C532.183 313.748 554.649 311.462 570.907 311.256C581.628 311.124 592.344 311.757 602.975 313.149C603.023 313.156 603.069 313.173 603.11 313.198C603.151 313.223 603.187 313.256 603.216 313.294C603.245 313.333 603.266 313.378 603.277 313.425C603.289 313.471 603.291 313.52 603.284 313.568C603.277 313.616 603.26 313.662 603.235 313.703C603.21 313.745 603.177 313.781 603.138 313.809C603.1 313.838 603.055 313.859 603.008 313.87C602.961 313.882 602.913 313.884 602.865 313.877C592.265 312.494 581.581 311.864 570.892 311.992C554.722 312.198 532.429 314.462 517.924 324.083C517.867 324.122 517.8 324.144 517.731 324.145Z" fill="#DEDEDE"/>
<path d="M520.432 345.503C520.354 345.502 520.278 345.476 520.215 345.428C520.153 345.381 520.107 345.315 520.085 345.24C520.063 345.165 520.065 345.085 520.091 345.011C520.118 344.937 520.167 344.874 520.232 344.83C534.888 335.106 557.35 332.82 573.608 332.614C584.329 332.48 595.045 333.113 605.676 334.507C605.773 334.521 605.861 334.573 605.92 334.652C605.979 334.731 606.004 334.831 605.99 334.928C605.976 335.025 605.924 335.113 605.845 335.172C605.766 335.231 605.667 335.256 605.569 335.242C594.97 333.857 584.285 333.227 573.596 333.357C557.426 333.563 535.129 335.827 520.628 345.448C520.569 345.484 520.501 345.503 520.432 345.503Z" fill="#DEDEDE"/>
<path d="M523.137 366.845C523.059 366.844 522.983 366.818 522.92 366.771C522.857 366.724 522.812 366.658 522.789 366.583C522.767 366.508 522.769 366.427 522.796 366.354C522.822 366.28 522.872 366.217 522.937 366.173C537.589 356.449 560.055 354.163 576.313 353.957C587.034 353.824 597.75 354.456 608.381 355.85C608.475 355.869 608.558 355.923 608.613 356.001C608.668 356.079 608.691 356.175 608.677 356.27C608.663 356.365 608.613 356.45 608.537 356.509C608.461 356.567 608.366 356.595 608.271 356.585C597.671 355.202 586.987 354.572 576.298 354.7C560.128 354.906 537.835 357.17 523.33 366.791C523.272 366.827 523.205 366.845 523.137 366.845V366.845Z" fill="#DEDEDE"/>
<path d="M81.689 392.993C81.6474 392.997 81.6056 392.997 81.564 392.993C80.917 392.802 81.094 391.793 81.417 389.957C81.652 388.619 82.09 386.128 81.517 385.867C81.194 385.72 80.017 387.311 79.393 388.167C77.864 390.243 75.964 392.831 74.152 391.743C73.9288 391.617 73.74 391.438 73.6022 391.222C73.4644 391.006 73.3819 390.759 73.362 390.504C73.182 388.222 77.533 384.488 78.029 384.073C78.0655 384.039 78.1085 384.013 78.1554 383.996C78.2022 383.98 78.252 383.973 78.3017 383.976C78.3514 383.979 78.3999 383.992 78.4444 384.014C78.4888 384.037 78.5283 384.068 78.5604 384.106C78.5925 384.144 78.6165 384.188 78.6311 384.235C78.6456 384.283 78.6503 384.333 78.645 384.383C78.6396 384.432 78.6242 384.48 78.5998 384.523C78.5754 384.567 78.5425 384.605 78.503 384.635C77.231 385.701 73.968 388.828 74.093 390.445C74.102 390.584 74.1466 390.718 74.2227 390.834C74.2987 390.951 74.4035 391.046 74.527 391.11C75.765 391.845 77.445 389.567 78.794 387.729C80.044 386.029 80.944 384.789 81.819 385.197C82.919 385.697 82.519 387.924 82.142 390.081C81.9861 390.801 81.8927 391.532 81.863 392.268C83.9397 391.108 85.9024 389.755 87.725 388.226C87.8019 388.17 87.8974 388.146 87.9917 388.159C88.0859 388.172 88.1715 388.22 88.2307 388.295C88.2899 388.369 88.3181 388.464 88.3094 388.558C88.3007 388.653 88.2558 388.741 88.184 388.803C85.72 390.726 82.659 392.993 81.689 392.993Z" fill="#1A1A1A"/>
<path d="M148.941 401.285C148.814 401.286 148.688 401.258 148.573 401.204C147.647 400.804 147.742 399.245 147.838 397.444C147.923 396.022 148.029 394.25 147.401 394.026C146.835 393.826 145.35 395.966 144.376 397.389C142.847 399.594 141.532 401.531 140.352 401.196C140.214 401.158 140.087 401.088 139.982 400.992C139.877 400.895 139.796 400.775 139.746 400.641C139.066 398.958 142.135 393.515 142.756 392.441C142.779 392.396 142.81 392.357 142.849 392.324C142.887 392.292 142.932 392.268 142.98 392.254C143.028 392.24 143.078 392.235 143.128 392.241C143.177 392.247 143.226 392.263 143.269 392.288C143.312 392.313 143.35 392.347 143.38 392.387C143.41 392.427 143.431 392.473 143.443 392.522C143.454 392.571 143.456 392.621 143.447 392.671C143.438 392.72 143.42 392.767 143.392 392.809C142.021 395.176 140.004 399.318 140.426 400.365C140.434 400.396 140.45 400.424 140.473 400.446C140.496 400.468 140.524 400.483 140.555 400.49C141.235 400.69 142.697 398.539 143.771 396.973C145.241 394.805 146.542 392.93 147.652 393.335C148.762 393.74 148.688 395.566 148.571 397.488C148.497 398.688 148.398 400.332 148.854 400.531C149.247 400.708 150.089 398.892 150.537 397.918C151.187 396.51 151.75 395.294 152.452 395.077C152.558 395.044 152.669 395.035 152.779 395.049C152.889 395.063 152.994 395.1 153.088 395.158C154.51 396.011 154.47 400.108 154.448 400.92C154.441 401.015 154.398 401.103 154.328 401.166C154.257 401.23 154.165 401.264 154.07 401.261C153.975 401.258 153.885 401.219 153.819 401.151C153.752 401.084 153.714 400.993 153.713 400.898C153.761 399.182 153.529 396.278 152.713 395.79H152.669C152.283 395.911 151.662 397.26 151.199 398.238C150.507 399.793 149.82 401.281 148.941 401.285Z" fill="#1A1A1A"/>
</svg>
